<?xml version="1.0" encoding="UTF-8"?>
<!DOCTYPE svg PUBLIC "-//W3C//DTD SVG 1.1//EN" "http://www.w3.org/Graphics/SVG/1.1/DTD/svg11.dtd">
<!-- Creator: CorelDRAW -->
<svg xmlns="http://www.w3.org/2000/svg" xml:space="preserve" width="2.66666in" height="2.66666in" version="1.1" style="shape-rendering:geometricPrecision; text-rendering:geometricPrecision; image-rendering:optimizeQuality; fill-rule:evenodd; clip-rule:evenodd"
viewBox="0 0 2666.66 2666.66"
 xmlns:xlink="http://www.w3.org/1999/xlink"
 xmlns:xodm="http://www.corel.com/coreldraw/odm/2003">
 <defs>
  <style type="text/css">
   <![CDATA[
    .fil1 {fill:#FEFEFE}
    .fil0 {fill:#E9225B}
   ]]>
  </style>
 </defs>
 <g id="Layer_x0020_1">
  <metadata id="CorelCorpID_0Corel-Layer"/>
  <circle class="fil0" cx="1333.33" cy="1333.33" r="1333.33"/>
  <path class="fil1" d="M1333.33 1625.93c-199.04,0 -306.33,-294.73 -183.17,-487.85 9.21,-14.45 26.73,-10.37 33.92,0.36l151.76 -69.3 170.39 91.04c9.07,-4.88 21.49,-3.63 27.43,8.56 95.54,196.07 -13.72,457.19 -200.32,457.19z"/>
  <path class="fil1" d="M1337.52 1871.27c-5.35,0 -10.47,-2.13 -14.24,-5.96l-72.87 -73.8 -49.54 54.3c-9.11,10 -25.4,8.22 -32.13,-3.54l-60.41 -105.47c-2.61,-4.56 -3.32,-9.97 -1.98,-15.04l53.98 -204.44c6,-22.76 37.48,-17.03 39.35,2.59l267.76 6.84c-5.83,-24.75 31.93,-34.81 38.8,-9.67l56.72 207.68c1.36,4.93 0.77,10.21 -1.65,14.72 -76.16,142.07 -55.98,140.54 -136.71,52.05l-72.87 73.8c-3.74,3.81 -8.87,5.94 -14.22,5.94z"/>
  <path class="fil1" d="M1093.6 1045.78c-24.92,0 -48.92,-61.69 -36.97,-101.42 12.81,-42.59 84.12,-99.45 98.97,-62.22 6.88,17.24 45.43,123.88 25.76,123.09 -102.6,-4.11 -49.39,40.55 -87.76,40.55z"/>
  <path class="fil1" d="M1369.06 1237.21c-15.53,0 -59.38,-51.68 -79.31,-71.86 -66.94,73.4 -41.87,71.52 -139.45,0.81 -6.97,-5.06 -9.93,-14 -7.35,-22.2l38.98 -126.13c-18.22,-15.33 -49.5,-91.12 -62.99,-119.72 -13.39,-28.4 68.08,-134.7 231.27,-93.54 8.97,2.44 201.19,58.89 192.24,377.87 -0.45,15.64 -18,24.74 -31.03,16.11l-73.46 -48.62 -52.26 78.4c-3.72,5.59 -9.92,8.89 -16.66,8.89zm-88.27 -269.5c-68.41,0 -68.41,-103.94 0,-103.94 68.39,0 68.4,103.94 0,103.94z"/>
  <path class="fil1" d="M1752.93 1492.88c-50,0 -73.34,-5.1 -131.23,-27.24 -26.77,-10.25 -67.21,-25.74 -91.17,-36.79 -20.2,-9.31 -11.37,-36.7 6.29,-38.3l4.92 -123.89c-18.72,2.17 -31.86,-25.57 -12.06,-37.35 138.4,-82.26 88.3,-124.83 105.32,-145.69 3.85,-4.72 9.56,-7.53 15.78,-7.35 17.04,0.25 418.43,8.65 533.77,245.28 6.07,12.46 -2.16,27.28 -15.96,28.66 -10.29,1.03 -78.44,7.23 -135.18,-5.55 15.26,27.98 38.43,58.37 29.79,74.02 -3.31,5.98 -9.48,9.86 -16.3,10.26 -3.89,0.19 -71.31,3.83 -135.29,-18.36 7.55,13.07 16.53,23.41 10.14,35.87 -3.09,6.04 -9.04,10.1 -15.8,10.77 -3.47,0.36 -69.32,6.58 -126.9,-12.79 8.34,31.23 15.35,48.45 -26.12,48.45z"/>
  <path class="fil1" d="M913.74 1492.88c-41.46,0 -34.49,-17.2 -26.12,-48.45 -57.59,19.37 -123.43,13.15 -126.9,12.79 -14.51,-1.49 -22.54,-17.39 -15.33,-29.89l9.67 -16.75c-63.98,22.2 -131.44,18.58 -135.29,18.36 -14.54,-0.85 -23.41,-16.64 -16.36,-29.53l29.86 -54.74c-56.77,12.79 -124.9,6.6 -135.19,5.55 -13.82,-1.41 -22.04,-16.17 -15.96,-28.66 115.33,-236.63 516.72,-245.05 533.76,-245.28 12.81,-0.06 22.59,11.63 19.83,24.27 -11.54,52.87 58.48,103.37 101.25,128.76 19.76,11.72 6.72,39.43 -11.98,37.35l0 124.72c20.57,-3.67 33.3,27.56 11.49,37.98l-111.95 44.23c-40.1,16.96 -87.55,19.31 -110.78,19.31z"/>
 </g>
</svg>
