<?xml version="1.0" encoding="UTF-8" standalone="no"?> <svg id="Layer_x0020_1" xmlns="http://www.w3.org/2000/svg" width="3000" height="3000" viewBox="0 0 3000 3000">
  <circle id="Ellipse_3" data-name="Ellipse 3" cx="1500" cy="1500" r="1500" fill="#b3eaa8"/>
  <path id="Path_11" data-name="Path 11" d="M1539.35,657.71Zm-164.18,440.36c-102.34,20.96-429.06,117.09-525.42,501.2-.31.94-110.94,322.63,203.94,632.07,8.96,10.78,146.55,168.56,485.24,108.19h.1a26.4,26.4,0,0,0,8.87-3.28c21.16-10.24,178.77-91.72,33.55-181.42l.05-.08a26.585,26.585,0,0,0-20.02-3.29c-18.02,2.75-173.39,23.71-271.24-56.69h477.81c-10.4-74.97-89.99-146.13-100.87-149.85a26.679,26.679,0,0,1-20.22-28.54l.07.01c36.67-369.86-319.13-348.55-320.15-348.5a26.589,26.589,0,0,1-2.5-53.12c1.17-.06,405.48-24.25,377.24,386.96,34.09,15.83,111.85,102.13,120.11,193.04H2031.3a26.663,26.663,0,0,0,26.56-24.32c2.18-15.67,11.68-118.99-107.98-169.29l20.92-304.91c38.75-27.07,148.64-124.82,104.52-339.59,83.69-68.52,159.11-184.82,17.67-340.03l-32.03-243.44.09-.04a26.667,26.667,0,0,0-47.9-12.35L1898.97,793c-27.82-5.66-86.55-15.56-136.87-10.52-8.02.09-71.33,1.48-115.24,23.41l-107.5-148.24a26.669,26.669,0,0,0-48.08,12.58l-34.77,227.56c-26.35,22.67-101.16,97.39-81.36,200.26Zm358.26,40.94a26.547,26.547,0,0,1-37.29,4.17c-22.94-18.35-103.17-4.87-103.4-4.83a26.6,26.6,0,1,1-8.54-52.5c.29-.05,103.31-17.53,145.07,15.88a26.547,26.547,0,0,1,4.17,37.29Zm25.39-15.37a26.04,26.04,0,1,1,26.04,26.04A26.042,26.042,0,0,1,1758.82,1123.64Zm253.85-7.28a26.6,26.6,0,0,1-30.52,21.98c-.23-.04-80.46-13.52-103.4,4.83a26.532,26.532,0,1,1-33.12-41.46c41.76-33.41,144.78-15.93,145.07-15.88a26.6,26.6,0,0,1,21.98,30.52ZM1642.15,994.47a26.04,26.04,0,1,1,26.04-26.04A26.042,26.042,0,0,1,1642.15,994.47Zm254.17,0a26.04,26.04,0,1,1,26.04-26.04A26.042,26.042,0,0,1,1896.32,994.47Z" fill="#022a32" fill-rule="evenodd"/>
</svg>
