<?xml version="1.0" encoding="UTF-8"?>
<!DOCTYPE svg PUBLIC "-//W3C//DTD SVG 1.1//EN" "http://www.w3.org/Graphics/SVG/1.1/DTD/svg11.dtd">
<!-- Creator: CorelDRAW -->
<svg xmlns="http://www.w3.org/2000/svg" xml:space="preserve" width="2.66666in" height="2.66666in" version="1.1" style="shape-rendering:geometricPrecision; text-rendering:geometricPrecision; image-rendering:optimizeQuality; fill-rule:evenodd; clip-rule:evenodd"
viewBox="0 0 2666.66 2666.66"
 xmlns:xlink="http://www.w3.org/1999/xlink"
 xmlns:xodm="http://www.corel.com/coreldraw/odm/2003">
 <defs>
  <style type="text/css">
   <![CDATA[
    .fil1 {fill:#293253}
    .fil0 {fill:#6CD47F}
    .fil2 {fill:#FED762}
   ]]>
  </style>
 </defs>
 <g id="Layer_x0020_1">
  <metadata id="CorelCorpID_0Corel-Layer"/>
  <circle class="fil0" cx="1333.33" cy="1333.33" r="1333.33"/>
  <path class="fil1" d="M1333.31 1296.87c-292.19,0 -502.74,-253.41 -407.64,-499.69 -55.23,-50.94 -106.79,-84.68 -109.9,-161.26 -5.44,-134.2 154.43,-205.57 251.27,-116.25l68.49 63.17c123.69,-56.26 271.99,-56.26 395.62,0.03 56.4,-52.09 95.48,-102.75 169.98,-102.75 136.96,0 201.11,168.55 101.72,259.94l-62.02 56.81c95.35,245.72 -114.7,500.01 -407.52,500.01zm-367.81 -776.75c-100.39,0 -147.48,123.34 -74.6,190.56l72.11 66.53c21.73,20.06 -20.09,42.46 -20.09,141.56 0,186.44 175.13,338.12 390.39,338.12 271.91,0 461.73,-237.09 365.39,-457.31 -3.43,-7.83 -1.48,-16.97 4.82,-22.75l72.27 -66.2c73.09,-67.19 25.4,-190.5 -74.66,-190.5 -27.76,0 -54.19,10.29 -74.44,28.96l-78.32 72.33c-24.74,22.83 -61.54,-40.77 -215.07,-40.77 -153.28,0 -190.28,63.53 -214.96,40.76l-78.41 -72.33c-20.25,-18.68 -46.69,-28.97 -74.43,-28.97z"/>
  <path class="fil1" d="M1424.91 1187.91l-183.18 0c-87.42,0 -158.54,-71.11 -158.54,-158.53 0,-87.42 71.11,-158.54 158.54,-158.54l183.18 0c87.42,0 158.53,71.11 158.53,158.53 0,87.42 -71.12,158.54 -158.53,158.54zm-183.18 -277.08c-65.37,0 -118.54,53.17 -118.54,118.54 0,65.37 53.17,118.55 118.54,118.55l183.18 0c65.35,0 118.52,-53.17 118.52,-118.54 0,-65.38 -53.17,-118.55 -118.52,-118.55l-183.18 0z"/>
  <path class="fil1" d="M1493.23 826.71c-32.11,0 -58.23,-26.12 -58.23,-58.21l0 -30.12c0,-76.64 116.44,-76.59 116.44,0l0 30.12c0,32.09 -26.12,58.21 -58.21,58.21zm0 -106.57c-23.13,0 -18.23,28.34 -18.23,48.36 0,24.04 36.45,24.03 36.45,-0.01 0,-19.97 4.89,-48.35 -18.22,-48.35z"/>
  <path class="fil1" d="M1173.41 826.71c-32.11,0 -58.21,-26.12 -58.21,-58.21l0 -30.12c0,-76.63 116.43,-76.61 116.43,0l0 30.12c0,32.09 -26.12,58.21 -58.21,58.21zm0 -106.57c-23.13,0 -18.23,28.34 -18.23,48.36 0,24 36.46,24 36.46,0 0,-19.97 4.89,-48.36 -18.23,-48.36z"/>
  <path class="fil1" d="M1333.31 1047.04c-79,0 -102.4,-106.55 -60.57,-106.55l121.16 0c41.82,0 18.43,106.55 -60.59,106.55zm-38.09 -66.54c13.03,35.26 63.17,35.28 76.17,0l-76.17 0z"/>
  <path class="fil1" d="M1333.31 1078.31c-25.16,0 -20,-30.41 -20,-51.26 0,-26.33 40,-26.33 40,0 0,20.85 5.17,51.26 -20,51.26z"/>
  <path class="fil1" d="M1396.62 1118.25c-10.64,0 -49.21,-27.41 -63.3,-36.3 -33.72,21.26 -65.24,50.76 -80.24,26.95 -5.89,-9.35 -3.09,-21.69 6.25,-27.58 88.89,-56.03 59.07,-56.09 147.98,0 16.93,10.68 9.2,36.9 -10.69,36.93z"/>
  <path class="fil1" d="M1333.29 2106.14c-50.96,0 -101.9,-9.83 -150.26,-29.46 -24.41,-9.9 -9.33,-46.95 15.04,-37.06 85.32,34.64 179.53,35.35 265.3,2.03 24.56,-9.52 39.01,27.75 14.49,37.28 -46.69,18.16 -95.64,27.21 -144.56,27.21zm400.07 -353.46c-12.45,0 -22.03,-11.52 -19.67,-23.8 29.91,-154.64 -25.74,-291.37 -26.31,-292.73 -6.8,-16.24 9.46,-32.76 25.84,-26.26l212.85 84.53c37.22,14.8 134.74,14.32 132.29,-93.65 -1.86,-81.69 -202.83,-207.78 -374.38,-290.92 -23.71,-11.5 -6.22,-47.48 17.45,-36 118.41,57.39 394.15,204.06 396.91,326.01 3.17,140.17 -125.45,156.24 -187.07,131.71l-172.72 -68.59c15.91,55.33 36.63,158.74 14.43,273.52 -1.87,9.55 -10.25,16.19 -19.62,16.19zm-801.94 -10.39c-9.57,0 -18.02,-6.89 -19.69,-16.62 -18.9,-110.46 1,-209.15 16.4,-262.71l-172.79 68.6c-61.46,24.5 -190.2,8.49 -187.01,-131.74 2.64,-116.29 249.86,-254.06 397.01,-325.84 23.67,-11.53 41.21,24.4 17.54,35.95 -229.53,111.97 -373.06,223.4 -374.59,290.82 -2.44,108.2 95.38,108.39 132.23,93.68l212.91 -84.54c16.31,-6.48 32.59,9.87 25.84,26.26 -0.54,1.31 -53.87,132.31 -28.12,282.78 2.08,12.15 -7.44,23.38 -19.73,23.38z"/>
  <path class="fil1" d="M1630.91 2186.54c-116.69,0 -211.65,-114.44 -211.65,-255.12 0,-140.68 94.96,-255.13 211.65,-255.13 116.69,0 211.65,114.46 211.65,255.13 0,140.67 -94.96,255.12 -211.65,255.12zm0 -470.24c-94.64,0 -171.65,96.5 -171.65,215.12 0,118.63 77,215.11 171.65,215.11 94.64,0 171.64,-96.48 171.64,-215.11 0,-118.62 -77,-215.12 -171.64,-215.12z"/>
  <path class="fil1" d="M1630.91 2075.61c-66.84,0 -121.22,-64.69 -121.22,-144.19 0,-79.52 54.38,-144.2 121.22,-144.2 66.83,0 121.22,64.69 121.22,144.2 0,79.5 -54.38,144.19 -121.22,144.19zm0 -248.38c-44.8,0 -81.22,46.73 -81.22,104.19 0,137.41 162.46,137.38 162.44,0 -0.01,-57.45 -36.44,-104.19 -81.22,-104.19z"/>
  <path class="fil1" d="M1035.73 2174.68c-116.7,0 -211.65,-114.46 -211.65,-255.13 0,-140.67 94.95,-255.12 211.65,-255.12 116.71,0 211.65,114.44 211.65,255.12 0,140.68 -94.94,255.13 -211.65,255.13zm0 -470.24c-94.65,0 -171.65,96.48 -171.65,215.11 0,118.63 77,215.13 171.65,215.13 94.65,0 171.66,-96.5 171.66,-215.13 0,-118.62 -77,-215.11 -171.66,-215.11z"/>
  <path class="fil1" d="M1035.73 2063.74c-66.83,0 -121.22,-64.68 -121.22,-144.19 0,-79.5 54.38,-144.19 121.22,-144.19 66.84,0 121.22,64.69 121.22,144.19 0,79.51 -54.37,144.19 -121.22,144.19zm0 -248.37c-44.8,0 -81.24,46.73 -81.24,104.18 0,137.38 162.46,137.41 162.46,0 0,-57.45 -36.44,-104.18 -81.22,-104.18z"/>
  <path class="fil2" d="M942.93 918.77c0,186.44 175.13,338.12 390.39,338.12 271.91,0 461.73,-237.09 365.39,-457.31 -3.43,-7.83 -1.48,-16.97 4.82,-22.75l72.27 -66.2c73.09,-67.19 25.4,-190.5 -74.66,-190.5 -27.76,0 -54.19,10.29 -74.44,28.96l-78.32 72.33c-6.1,5.63 -15.03,6.89 -22.41,3.25 -119.07,-58.7 -266.1,-58.64 -385.24,-0.02 -7.43,3.65 -16.33,2.35 -22.39,-3.23l-78.41 -72.33c-70.76,-65.28 -188.14,-13.49 -184.18,85.22 1.18,29.44 13.67,56.56 35.15,76.36l72.11 66.53c21.73,20.07 -20.09,42.44 -20.09,141.56zm230.48 -92.06c-32.11,0 -58.21,-26.12 -58.21,-58.21l0 -30.12c0,-76.62 116.43,-76.61 116.43,0l0 30.12c0,32.09 -26.12,58.21 -58.21,58.21zm68.33 44.12l183.18 0c87.42,0 158.53,71.11 158.53,158.53 0,87.42 -71.12,158.54 -158.53,158.54l-183.18 0c-87.42,0 -158.54,-71.11 -158.54,-158.53 0,-87.42 71.11,-158.54 158.54,-158.54zm251.5 -44.12c-32.11,0 -58.23,-26.12 -58.23,-58.21l0 -30.12c0,-76.63 116.44,-76.59 116.44,0l0 30.12c0,32.09 -26.12,58.21 -58.21,58.21z"/>
  <path class="fil2" d="M1155.17 738.38c0,20.01 -4.89,48.35 18.23,48.35 23.12,0 18.24,-28.33 18.23,-48.35 -0.01,-24 -36.46,-24 -36.46,0z"/>
  <path class="fil2" d="M1493.22 786.74l0 0zm-18.22 -48.35c0,20.04 -4.9,48.35 18.23,48.35 23.1,-0 18.22,-28.33 18.22,-48.36 -0.01,-24 -36.45,-23.99 -36.45,0.01z"/>
  <path class="fil2" d="M1543.44 1029.38c0,-65.38 -53.17,-118.55 -118.52,-118.55l-183.18 0c-65.37,0 -118.54,53.17 -118.54,118.54 0,65.37 53.17,118.55 118.54,118.55l183.18 0c65.35,0 118.52,-53.17 118.52,-118.54zm-136.12 51.94c16.95,10.7 9.17,36.91 -10.69,36.93 -10.62,0.01 -49.24,-27.43 -63.3,-36.3l-52.66 33.2c-22.28,14.05 -43.6,-19.8 -21.33,-33.83l53.98 -34.04 0 -2.76c-62.96,-16.14 -78.43,-104.04 -40.57,-104.04l121.16 0c37.85,0 22.39,87.9 -40.59,104.04l0 2.74 54 34.06z"/>
  <path class="fil2" d="M1333.31 1007.06c17.46,0 32.37,-11.07 38.08,-26.56l-76.17 0c5.72,15.48 20.64,26.56 38.09,26.56z"/>
  <path class="fil2" d="M1699.4 1117.39c-168.52,238.86 -563.41,238.92 -732.06,0.17 -220.46,109.38 -357.57,217.3 -359.06,283.19 -0.89,39.33 10.29,67.35 33.23,83.26 34.45,23.91 85.36,15.89 99,10.41l212.91 -84.54c16.32,-6.49 32.59,9.89 25.84,26.26 -0.5,1.22 -46.74,114.81 -32.37,251.87 39.65,-22.19 85.02,-29.31 129.46,-18.86 12.67,-147.98 121.81,-264.3 253.43,-264.3 135.94,0 247.35,123.23 254.32,277.74 45.67,-12.48 93.02,-6.16 134.36,16.57 18.19,-142.03 -30.54,-261.75 -31.08,-263.02 -6.8,-16.24 9.45,-32.76 25.84,-26.26l212.85 84.53c13.72,5.46 64.6,13.51 99.04,-10.4 22.94,-15.91 34.13,-43.93 33.24,-83.25 -1.81,-79.26 -191.02,-200.3 -358.96,-283.37z"/>
  <path class="fil2" d="M1544.45 1697.97c0,-139.57 -96.31,-253.12 -214.66,-253.12 -113.81,0 -207.72,105.73 -214.29,238.27 83.6,40.8 135.7,140.2 131.65,248.49 55.04,27.23 118.06,25.82 172.14,-3.58 0.99,-92.81 45.68,-186.72 125.16,-229.59l0 -0.47z"/>
  <path class="fil2" d="M1630.91 1716.31c-131.01,0 -220.54,179.78 -142.19,335.49 30.89,57.13 83.1,94.74 142.19,94.74 164.91,0 242.17,-273.31 89.31,-398.76 -26.04,-19.96 -56.62,-31.48 -89.31,-31.48zm-121.22 215.12c0,-79.52 54.38,-144.2 121.22,-144.2 66.83,0 121.22,64.69 121.22,144.2 0,79.5 -54.38,144.19 -121.22,144.19 -66.84,0 -121.22,-64.69 -121.22,-144.19z"/>
  <path class="fil2" d="M1630.91 1827.24c-44.8,0 -81.22,46.73 -81.22,104.19 0,57.45 36.43,104.18 81.22,104.18 44.8,0 81.22,-46.73 81.22,-104.18 -0.01,-57.45 -36.44,-104.19 -81.22,-104.19z"/>
  <path class="fil2" d="M1421.84 1971.31c-57.38,25.52 -121.53,26.45 -179.23,2.2 -4.72,26.34 -12.83,51.18 -23.74,73.82 72.87,24.53 151.02,25.06 224.17,1.52 -10.32,-23.9 -17.6,-50 -21.2,-77.55z"/>
  <path class="fil2" d="M914.51 1919.55c0,-79.5 54.38,-144.19 121.22,-144.19 66.84,0 121.22,64.69 121.22,144.19 0,79.51 -54.37,144.19 -121.22,144.19 -66.83,0 -121.22,-64.68 -121.22,-144.19zm292.87 0c0,-158.3 -138.35,-276.47 -264.38,-180.96 -47.45,38.31 -78.93,105.11 -78.93,180.96 0,198.51 202.69,299.3 309.78,127.59 21.06,-35.72 33.53,-79.86 33.53,-127.59z"/>
  <path class="fil2" d="M1035.73 1815.37c-44.8,0 -81.24,46.73 -81.24,104.18 0,57.45 36.44,104.18 81.24,104.18 44.79,0 81.22,-46.73 81.22,-104.18 0,-57.45 -36.44,-104.18 -81.22,-104.18z"/>
  <path class="fil1" d="M1329.77 1991.09c-27.46,0 -126.06,-15.33 -123.28,-49.48 8.11,-99.4 -39.21,-195.26 -118.79,-227.08 -7.63,-3.06 -12.64,-10.47 -12.58,-18.69 1,-160.45 115.22,-290.99 254.65,-290.99 145.66,0 260.96,140.35 254.38,306.92 -0.3,7.54 -4.83,14.25 -11.68,17.39 -69.81,31.91 -116.06,117.73 -113.09,209.72 1.07,33.19 -97.63,52.21 -129.6,52.21zm-82.62 -59.47c55.04,27.23 118.05,25.83 172.14,-3.58 1.09,-99.19 50.63,-189.39 125.16,-229.59 0,-140.15 -96.23,-253.59 -214.66,-253.59 -113.81,0 -207.72,105.73 -214.29,238.27 83.57,40.78 135.75,140.24 131.65,248.49z"/>
 </g>
</svg>
